# xmcd
#
# Track frame offsets: 
#        150
#        11857
#        29994
#        46495
#        60712
#        79340
#        89632
#        106857
#        122300
#        145802
#        164085
#        176942
#        195757
#        212315
#        232507
#        246855
#
# Disc length: 3478 seconds
#
# Revision: 4
# Processed by: cddbd v1.5.1PL0 Copyright (c) Steve Scherf et al.
# Submitted via: ExactAudioCopy v0.95b2
#
DISCID=d80d9410
DTITLE=Steve Earle - Ain't Ever Satisfied - Disc 1
DYEAR=1996
DGENRE=Country
TTITLE0=Guitar Town
TTITLE1=Good Ol' Boy (Gettin' Tough)
TTITLE2=Hillbilly Highway
TTITLE3=My Old Friend The Blues
TTITLE4=Fearless Heart
TTITLE5=Think It Over
TTITLE6=Someday
TTITLE7=Goodbye's All We Got Left
TTITLE8=State Trooper (live)
TTITLE9=I Ain't Ever Satisfied
TTITLE10=Nowhere Road
TTITLE11=The Rain Came Down
TTITLE12=I Love You Too Much
TTITLE13=The Week Of Living Dangerously
TTITLE14=Continental Trailway Blues
TTITLE15=Six Days On The Road
EXTD=
EXTT0=
EXTT1=
EXTT2=
EXTT3=
EXTT4=
EXTT5=
EXTT6=
EXTT7=
EXTT8=
EXTT9=
EXTT10=
EXTT11=
EXTT12=
EXTT13=
EXTT14=
EXTT15=
PLAYORDER=
